<svg width="25" height="25" viewBox="0 0 25 25" fill="none" xmlns="http://www.w3.org/2000/svg">
<g clip-path="url(#clip0_2_1215)">
<path d="M12.2097 2.08335H23.3173V5.88208H12.2097V2.08335Z" fill="#E09F1F"/>
<path d="M1.15027 15.1623C-0.244149 16.5568 -0.388412 18.8169 0.813647 20.3556L6.34353 14.8257C4.80468 13.6236 2.54481 13.7679 1.15031 15.1623L1.15027 15.1623Z" fill="#E09F1F"/>
<path d="M1.5348 21.0766C3.07349 22.2787 5.2854 22.1344 6.72804 20.74C8.12245 19.3456 8.26672 17.0855 7.06466 15.5467L1.5348 21.0766Z" fill="#E09F1F"/>
<path d="M6.34322 4.199C4.80453 2.99693 2.54466 3.14119 1.15042 4.53562C-0.243996 5.93004 -0.38826 8.19013 0.813803 9.72886L6.34322 4.199Z" fill="#E09F1F"/>
<path d="M1.5348 10.4499C3.07349 11.652 5.2854 11.5077 6.72804 10.1133C8.12245 8.71888 8.26672 6.45878 7.06466 4.92005L1.5348 10.4499Z" fill="#E09F1F"/>
<path d="M18.4607 14.6815V12.662H17.1144V14.7297C17.1144 15.0181 16.874 15.2587 16.5854 15.2587H14.5177V16.605H16.5854C16.8739 16.605 17.1144 16.8453 17.1144 17.134V19.2017H18.4607V17.134C18.4607 16.8455 18.701 16.605 18.9897 16.605H21.0574V15.2587H18.9897C18.701 15.2105 18.4607 14.97 18.4607 14.6815V14.6815Z" fill="#E09F1F"/>
<path d="M24.1826 9.58476C23.269 8.95966 22.6439 8.04608 22.4034 6.94014H13.1711C12.9308 7.99794 12.2575 8.95966 11.3919 9.58476C10.8629 9.92138 10.5744 10.4983 10.5744 11.1234V21.3653C10.5744 22.4231 11.4398 23.2406 12.4497 23.2406H23.1246C24.1824 23.2406 24.9999 22.3751 24.9999 21.3653V11.1234C24.9999 10.4983 24.7114 9.92137 24.1824 9.58476H24.1826ZM22.0669 17.086C22.0669 17.3744 21.8266 17.615 21.5379 17.615H19.4702V19.6827C19.4702 19.9711 19.2299 20.2117 18.9412 20.2117H16.5369C16.2484 20.2117 16.0079 19.9713 16.0079 19.6827V17.615H13.9402C13.6517 17.615 13.4112 17.3746 13.4112 17.086V14.6816C13.4112 14.3932 13.6515 14.1526 13.9402 14.1526H16.0079V12.0849C16.0079 11.7965 16.2482 11.5559 16.5369 11.5559H18.9412C19.2297 11.5559 19.4702 11.7963 19.4702 12.0849V14.1526H21.5379C21.8264 14.1526 22.0669 14.393 22.0669 14.6816V17.086Z" fill="#E09F1F"/>
</g>
<defs>
<clipPath id="clip0_2_1215">
<rect width="24.8889" height="24.8889" fill="white" transform="scale(1.00446)"/>
</clipPath>
</defs>
</svg>
