<svg width="16" height="16" viewBox="0 0 16 16" fill="none" xmlns="http://www.w3.org/2000/svg">
<path d="M3.2 7.99999C3.2 8.29454 2.96122 8.53332 2.66666 8.53332C2.37211 8.53332 2.13333 8.29454 2.13333 7.99999C2.13333 7.70544 2.37211 7.46666 2.66666 7.46666C2.96122 7.46666 3.2 7.70544 3.2 7.99999Z" stroke="#4A545E" stroke-width="1.5"/>
<path d="M8.53333 7.99999C8.53333 8.29454 8.29455 8.53332 8 8.53332C7.70545 8.53332 7.46666 8.29454 7.46666 7.99999C7.46666 7.70544 7.70545 7.46666 8 7.46666C8.29455 7.46666 8.53333 7.70544 8.53333 7.99999Z" stroke="#4A545E" stroke-width="1.5"/>
<path d="M13.8667 7.99999C13.8667 8.29454 13.6279 8.53333 13.3333 8.53333C13.0388 8.53333 12.8 8.29454 12.8 7.99999C12.8 7.70544 13.0388 7.46666 13.3333 7.46666C13.6279 7.46666 13.8667 7.70544 13.8667 7.99999Z" stroke="#4A545E" stroke-width="1.5"/>
</svg>
