<svg width="32" height="32" viewBox="0 0 32 32" fill="none" xmlns="http://www.w3.org/2000/svg">
<path d="M20.4464 10.9885L20.2274 11.4375L20.8235 11.5887C21.5747 11.7792 22.2413 12.2147 22.7174 12.8262L22.7174 12.8263C23.1938 13.4379 23.4527 14.1905 23.4535 14.9658V23.0526C23.4535 23.9775 23.0862 24.8645 22.4321 25.5184L22.432 25.5185C21.778 26.1725 20.8911 26.54 19.9662 26.54H13.3206C12.3957 26.54 11.5088 26.1725 10.8548 25.5185L10.8548 25.5184C10.2006 24.8645 9.83331 23.9774 9.83331 23.0526V14.9655C9.8342 14.1903 10.0931 13.4378 10.5694 12.8263L10.5695 12.8262C11.0456 12.2146 11.712 11.7792 12.4633 11.5887L12.8404 11.493V11.104V9.40274V8.96655L12.4083 8.90737C11.9711 8.8475 11.5705 8.63147 11.2805 8.2993C10.9905 7.96704 10.8304 7.54101 10.8302 7.10024C10.8302 7.10017 10.8302 7.1001 10.8302 7.10003V6.32585C10.8302 5.84162 11.0225 5.37711 11.3649 5.03471C11.3649 5.03471 11.3649 5.0347 11.3649 5.03469L20.4464 10.9885ZM20.4464 10.9885V9.40268V8.96636L20.8787 8.90729C21.3152 8.84764 21.7153 8.63191 22.0054 8.30014L22.0054 8.30013C22.2953 7.96855 22.4556 7.54334 22.4566 7.10285C22.4566 7.1027 22.4566 7.10256 22.4566 7.10241L22.4566 6.32585C22.4566 5.84164 22.2643 5.37713 21.9219 5.03469L20.4464 10.9885ZM20.1174 9.44256V8.94367L19.6186 8.94256L13.6708 8.92933L13.1697 8.92821V9.42932V10.9943V11.4943H13.6697H19.6174H20.1174V10.9943V9.44256ZM11.1594 7.10344V7.27815L11.1721 7.29405C11.2147 7.62038 11.3641 7.92544 11.5995 8.16023L11.5997 8.16044C11.8803 8.43998 12.2603 8.59689 12.6563 8.59689H20.6309C21.0279 8.59689 21.4087 8.43929 21.6893 8.15863C21.9701 7.87784 22.1278 7.4971 22.1278 7.10024V6.32585C22.1278 5.92898 21.9701 5.54824 21.6893 5.26746L21.3358 5.62101L21.6893 5.26746C21.4089 4.987 21.0282 4.82897 20.6309 4.82897H12.6563C12.259 4.82897 11.8783 4.98701 11.5979 5.26746C11.3171 5.54825 11.1594 5.92899 11.1594 6.32585V7.10344ZM22.1996 25.2858L22.1996 25.2858C22.7916 24.6937 23.1246 23.8902 23.1246 23.0528V14.9654C23.1246 14.1276 22.7916 13.3244 22.1997 12.7322L22.1996 12.7321C21.6072 12.1397 20.8039 11.8071 19.9663 11.8071H13.3207C12.4831 11.8071 11.6798 12.1397 11.0874 12.7321L11.0873 12.7322C10.4954 13.3244 10.1625 14.1276 10.1625 14.9654V23.0528C10.1625 23.8902 10.4954 24.6937 11.0874 25.2858L11.0875 25.2858C11.6797 25.8781 12.4829 26.211 13.3207 26.211H19.9663C20.804 26.211 21.6073 25.8781 22.1996 25.2858Z" fill="#0E1012" stroke="#0E1012"/>
<path d="M15.979 18.8449H16.479V18.3449V16.5188H16.8079V18.3449V18.8449H17.3079H19.1338V19.1739H17.3079H16.8079V19.6739V21.4997H16.479V19.6739V19.1739H15.979H14.1531V18.8449H15.979Z" fill="#0E1012" stroke="#0E1012"/>
</svg>
