<svg width="20" height="20" viewBox="0 0 20 20" fill="none" xmlns="http://www.w3.org/2000/svg">
<path d="M4.00001 9.61094C4.00001 9.96481 3.70153 10.2517 3.33334 10.2517C2.96515 10.2517 2.66667 9.96481 2.66667 9.61094C2.66667 9.25708 2.96515 8.97021 3.33334 8.97021C3.70153 8.97021 4.00001 9.25708 4.00001 9.61094Z" stroke="white" stroke-opacity="0.62" stroke-width="2"/>
<path d="M10.6667 9.61094C10.6667 9.96481 10.3682 10.2517 10 10.2517C9.63182 10.2517 9.33334 9.96481 9.33334 9.61094C9.33334 9.25708 9.63182 8.97021 10 8.97021C10.3682 8.97021 10.6667 9.25708 10.6667 9.61094Z" stroke="white" stroke-opacity="0.62" stroke-width="2"/>
<path d="M17.3333 9.61094C17.3333 9.96481 17.0349 10.2517 16.6667 10.2517C16.2985 10.2517 16 9.96481 16 9.61094C16 9.25708 16.2985 8.97021 16.6667 8.97021C17.0349 8.97021 17.3333 9.25708 17.3333 9.61094Z" stroke="white" stroke-opacity="0.62" stroke-width="2"/>
</svg>
