<svg width="24" height="24" viewBox="0 0 24 24" fill="none" xmlns="http://www.w3.org/2000/svg">
<path d="M4.80001 12C4.80001 12.4418 4.44184 12.8 4.00001 12.8C3.55818 12.8 3.20001 12.4418 3.20001 12C3.20001 11.5581 3.55818 11.2 4.00001 11.2C4.44184 11.2 4.80001 11.5581 4.80001 12Z" fill="#7B8D9E"/>
<path d="M12.8 12C12.8 12.4418 12.4418 12.8 12 12.8C11.5582 12.8 11.2 12.4418 11.2 12C11.2 11.5581 11.5582 11.2 12 11.2C12.4418 11.2 12.8 11.5581 12.8 12Z" fill="#7B8D9E"/>
<path d="M20.8 12C20.8 12.4418 20.4418 12.8 20 12.8C19.5582 12.8 19.2 12.4418 19.2 12C19.2 11.5581 19.5582 11.2 20 11.2C20.4418 11.2 20.8 11.5581 20.8 12Z" fill="#7B8D9E"/>
<path d="M4.80001 12C4.80001 12.4418 4.44184 12.8 4.00001 12.8C3.55818 12.8 3.20001 12.4418 3.20001 12C3.20001 11.5581 3.55818 11.2 4.00001 11.2C4.44184 11.2 4.80001 11.5581 4.80001 12Z" stroke="#7B8D9E" stroke-width="2"/>
<path d="M12.8 12C12.8 12.4418 12.4418 12.8 12 12.8C11.5582 12.8 11.2 12.4418 11.2 12C11.2 11.5581 11.5582 11.2 12 11.2C12.4418 11.2 12.8 11.5581 12.8 12Z" stroke="#7B8D9E" stroke-width="2"/>
<path d="M20.8 12C20.8 12.4418 20.4418 12.8 20 12.8C19.5582 12.8 19.2 12.4418 19.2 12C19.2 11.5581 19.5582 11.2 20 11.2C20.4418 11.2 20.8 11.5581 20.8 12Z" stroke="#7B8D9E" stroke-width="2"/>
</svg>
