<svg width="320" height="72" viewBox="0 0 320 72" fill="none" xmlns="http://www.w3.org/2000/svg">
<rect y="0.351309" width="71.5589" height="71.5589" rx="20" fill="#DCEDF9"/>
<path d="M42.6134 38.409V47.6612C43.496 47.9754 44.1321 48.8094 44.1321 49.7994C44.1321 51.0569 43.1115 52.0775 41.854 52.0775C40.5968 52.0775 39.5762 51.0569 39.5762 49.7994C39.5762 48.8091 40.2126 47.9755 41.0948 47.6612V38.409H39.5762C39.5762 40.0858 37.8768 41.4465 35.7795 41.4465C33.6819 41.4462 31.9826 40.0855 31.9826 38.409H30.464V41.5238C32.1954 41.8761 33.5015 43.4085 33.5015 45.2432V48.2807C33.5015 49.3666 33.0245 50.4039 32.1938 51.1313C32.0494 51.2557 31.8717 51.3179 31.694 51.3179C31.483 51.3179 31.2717 51.23 31.123 51.0584C30.8466 50.7426 30.8799 50.2625 31.1959 49.9862C31.6955 49.5501 31.9826 48.9275 31.9826 48.2804V45.2429C31.9826 43.9872 30.9605 42.9651 29.7045 42.9651C28.4485 42.9651 27.4265 43.9872 27.4265 45.2432V48.2807C27.4265 48.9277 27.7135 49.5504 28.2146 49.9862C28.5304 50.2625 28.5624 50.7426 28.2876 51.0584C28.0112 51.3741 27.5296 51.4046 27.2169 51.1313C26.3845 50.4036 25.9078 49.3663 25.9078 48.2804V45.2429C25.9078 43.4082 27.2139 41.8759 28.9453 41.5235L28.9451 38.4089C25.5903 38.4089 22.8703 41.1289 22.8703 44.4837V53.5959H48.6886V44.4837C48.6886 41.1289 45.9684 38.4089 42.6136 38.4089L42.6134 38.409Z" fill="#1C6BA4"/>
<path d="M33.1537 36.3633C33.9617 36.7005 34.8487 36.8901 35.7796 36.8901C36.7106 36.8901 37.5975 36.7002 38.4055 36.3631C40.8749 35.3337 42.6138 32.8989 42.6138 30.056V27.7779H28.9454V30.056C28.9454 32.899 30.6829 35.3337 33.1537 36.3633V36.3633Z" fill="#1C6BA4"/>
<path d="M42.6135 21.5616C40.7272 19.6314 38.2534 18.6655 35.7793 18.6655C33.3054 18.6655 30.8329 19.6314 28.9451 21.5616V26.2591H42.6135V21.5616ZM38.0574 23.2216H36.5387V24.7403H35.0201V23.2216H33.5015L33.5012 21.703H35.0199L35.0201 20.1844H36.5387V21.703H38.0574V23.2216Z" fill="#1C6BA4"/>
<rect x="82.6762" y="0.351309" width="71.5589" height="71.5589" rx="20" fill="#FAF0DB"/>
<path d="M119.965 35.3854C121.604 33.9202 123.779 33.0375 126.161 33.0375C127.6 33.0375 128.939 33.3776 130.137 33.9207L131.66 32.5348C133.665 30.4212 133.35 26.6579 130.845 23.9692C128.356 21.2481 124.615 20.6479 122.342 22.5143L113.738 30.4716C115.026 30.9669 116.26 31.6508 117.356 32.617C118.699 33.6771 119.546 34.8174 119.965 35.385L119.965 35.3854Z" fill="#E09F1F"/>
<path d="M119.054 36.2871C118.76 35.8638 117.885 34.68 116.553 33.5478C115.345 32.5344 114.064 31.8331 112.751 31.4235L103.947 39.5613C101.732 41.6133 101.982 45.5464 104.605 48.3112C107.153 51.072 111.032 51.651 113.235 49.5916L117.295 45.8215C116.937 44.7979 116.72 43.6898 116.72 42.5395C116.72 40.1371 117.585 37.9297 119.054 36.2868L119.054 36.2871Z" fill="#E09F1F"/>
<path d="M134.106 40.1146L118.728 46.2083C120.602 50.0222 125.143 51.8354 129.221 50.2439C133.26 48.6219 135.354 44.2153 134.106 40.1149L134.106 40.1146Z" fill="#E09F1F"/>
<path d="M123.124 34.7918C119.072 36.3808 116.955 40.8136 118.204 44.9056L133.593 38.812C131.706 34.9947 127.166 33.189 123.124 34.7917V34.7918Z" fill="#E09F1F"/>
<rect x="165.352" y="0.351309" width="71.5589" height="71.5589" rx="20" fill="#D6F6FF"/>
<path d="M203.854 35.1493L202.371 32.97L200.905 36.2139C200.823 36.398 200.665 36.5071 200.485 36.5071L200.483 36.5074C200.303 36.5074 200.145 36.3994 200.063 36.2162L199.025 33.957L198.404 35.1056C198.289 35.3207 198.039 35.4697 197.794 35.4697H195.15C194.941 35.4697 194.773 35.6388 194.773 35.847C194.773 36.0552 194.941 36.2252 195.15 36.2252H197.643C198.384 37.0606 199.483 37.8172 201.051 38.3585C203.084 37.6581 204.332 36.6005 205.023 35.4698H204.459C204.231 35.4716 203.981 35.3396 203.854 35.1494L203.854 35.1493Z" fill="#009DC7"/>
<path d="M207.42 33.9707H205.627C206.019 32.1267 205.193 30.4096 204.065 30.0063C202.041 29.2828 201.052 31.1131 201.052 31.1131C201.052 31.1131 200.063 29.2829 198.038 30.0063C196.758 30.4635 195.869 32.6109 196.699 34.716H197.757L198.63 33.0991C198.722 32.928 198.882 32.828 199.061 32.834C199.239 32.84 199.393 32.9492 199.475 33.1272L200.481 35.3206L201.884 32.2179C201.96 32.0477 202.109 31.9367 202.28 31.9217C202.455 31.9037 202.619 31.9908 202.722 32.1458L204.477 34.7252H207.419C207.626 34.7252 207.796 34.555 207.796 34.347C207.796 34.1388 207.627 33.9707 207.42 33.9707L207.42 33.9707Z" fill="#009DC7"/>
<path d="M211.217 24.3759H206.98L206.98 23.5603C206.98 22.9278 206.466 22.4146 205.834 22.4146H204.841C204.146 21.1678 202.815 20.3235 201.286 20.3235C199.756 20.3235 198.425 21.1681 197.729 22.4146H196.736C196.103 22.4146 195.59 22.928 195.59 23.5603V24.3747L191.351 24.3749C190.198 24.3749 189.26 25.3135 189.26 26.466L189.26 50.2519C189.26 51.4047 190.198 52.3431 191.351 52.3431H211.217C212.37 52.3431 213.308 51.4045 213.308 50.2519L213.308 26.4666C213.308 25.3132 212.37 24.3755 211.217 24.3755L211.217 24.3759ZM191.351 50.252V26.4667H195.588V27.6084C195.588 28.2418 196.102 28.7541 196.735 28.7541H205.832C206.466 28.7541 206.979 28.2418 206.979 27.6084L206.979 26.4667H211.215L211.217 50.252H191.351Z" fill="#009DC7"/>
<path d="M202.801 41.5298C202.801 41.6528 202.702 41.753 202.578 41.753L194.24 41.7527C194.117 41.7527 194.016 41.6528 194.016 41.5295V40.638C194.016 40.515 194.116 40.4148 194.24 40.4148H202.579C202.702 40.4148 202.802 40.5147 202.802 40.638L202.801 41.5298Z" fill="#009DC7"/>
<path d="M206.366 42.4744C206.124 42.4744 205.899 42.3592 205.744 42.1563L204.009 39.8821L204.965 39.1527L206.325 40.9356L208.547 37.2875L209.573 37.9128L207.03 42.0902C206.889 42.3203 206.663 42.4603 206.405 42.4744C206.391 42.4732 206.38 42.4744 206.366 42.4744L206.366 42.4744Z" fill="#009DC7"/>
<path d="M202.801 47.5423C202.801 47.6653 202.702 47.7643 202.578 47.7643L194.24 47.7645C194.117 47.7645 194.016 47.6655 194.016 47.5425V46.65C194.016 46.527 194.116 46.4268 194.24 46.4268H202.579C202.702 46.4268 202.802 46.5267 202.802 46.65L202.801 47.5423Z" fill="#009DC7"/>
<path d="M206.366 48.4863C206.124 48.4863 205.899 48.3712 205.744 48.1683L204.009 45.894L204.965 45.1646L206.325 46.9467L208.547 43.2985L209.573 43.9238L207.03 48.1024C206.889 48.3316 206.663 48.4725 206.405 48.4866C206.391 48.4863 206.38 48.4863 206.366 48.4863L206.366 48.4863Z" fill="#009DC7"/>
<rect x="248.441" width="71.5589" height="71.5589" rx="20" fill="#F2E3E9"/>
<path d="M295.834 35.58C295.867 35.5835 295.9 35.5835 295.932 35.58C296.087 35.9591 296.409 36.2443 296.804 36.3517C297.199 36.4589 297.622 36.376 297.947 36.1274C298.272 35.8788 298.463 35.4928 298.463 35.0835C298.463 34.6742 298.272 34.2882 297.947 34.0396C297.622 33.7911 297.199 33.7081 296.804 33.8153C296.409 33.9228 296.087 34.2079 295.932 34.587C295.9 34.5835 295.867 34.5835 295.834 34.587H294.23C294.18 33.5644 293.984 32.5545 293.649 31.5872L295.138 30.996C295.169 30.9845 295.199 30.9684 295.226 30.9489C295.51 31.2458 295.916 31.3933 296.324 31.3481C296.732 31.3028 297.096 31.07 297.307 30.7182C297.519 30.3664 297.555 29.9359 297.404 29.5542C297.252 29.1723 296.932 28.8826 296.537 28.771C296.142 28.6593 295.717 28.7382 295.389 28.9845C295.06 29.2307 294.865 29.616 294.861 30.0267C294.829 30.0321 294.797 30.041 294.767 30.0537L293.284 30.6482C292.832 29.6638 292.236 28.7528 291.514 27.9458L292.662 26.8209C292.682 26.7952 292.7 26.7681 292.716 26.7398C293.091 26.9081 293.523 26.8916 293.883 26.6951C294.244 26.4983 294.492 26.1444 294.554 25.7384C294.616 25.3322 294.484 24.9205 294.198 24.6258C293.911 24.3313 293.504 24.1873 293.096 24.2368C292.688 24.2865 292.327 24.5238 292.12 24.8787C291.913 25.2333 291.883 25.6645 292.041 26.0441C292.013 26.0643 291.983 26.0745 291.956 26.098L290.811 27.2229C290.046 26.5108 289.181 25.9145 288.244 25.4528L288.886 23.9835C288.899 23.9531 288.909 23.9212 288.916 23.889C289.325 23.8984 289.715 23.717 289.972 23.3979C290.228 23.0791 290.321 22.6587 290.223 22.2614C290.125 21.8642 289.848 21.535 289.473 21.371C289.098 21.2072 288.668 21.2272 288.31 21.4256C287.952 21.6238 287.707 21.9775 287.647 22.382C287.587 22.7869 287.719 23.1966 288.004 23.4902C287.986 23.5183 287.97 23.5477 287.957 23.5781L287.315 25.0475C286.255 24.6474 285.139 24.4193 284.008 24.3719V22.7539C284.011 22.7211 284.011 22.6884 284.008 22.6558C284.387 22.501 284.672 22.1787 284.779 21.7838C284.887 21.3886 284.804 20.9661 284.555 20.641C284.306 20.3158 283.92 20.1252 283.511 20.1252C283.102 20.1252 282.716 20.3158 282.467 20.641C282.219 20.9662 282.136 21.3887 282.243 21.7838C282.35 22.1787 282.636 22.5011 283.014 22.6558C283.011 22.6884 283.011 22.7211 283.014 22.7539V24.3585V24.3583C281.883 24.4059 280.767 24.634 279.707 25.0339L279.059 23.5882C279.045 23.5578 279.029 23.5284 279.012 23.5004C279.299 23.2098 279.435 22.8017 279.378 22.3967C279.321 21.9918 279.079 21.6367 278.723 21.4362C278.366 21.2357 277.937 21.2131 277.562 21.3747C277.186 21.5364 276.907 21.8641 276.808 22.2607C276.709 22.6573 276.801 23.0774 277.056 23.3967C277.311 23.7162 277.701 23.8981 278.11 23.8889C278.117 23.9212 278.127 23.953 278.14 23.9834L278.785 25.4528C277.856 25.9109 276.998 26.5016 276.238 27.2059L275.069 26.0812C275.042 26.0576 275.012 26.0475 274.985 26.0272V26.027C275.142 25.6474 275.113 25.2164 274.906 24.8616C274.699 24.5069 274.337 24.2694 273.93 24.2197C273.522 24.1702 273.114 24.3142 272.828 24.6089C272.542 24.9037 272.41 25.3151 272.472 25.7213C272.533 26.1276 272.781 26.4815 273.142 26.678C273.503 26.8745 273.935 26.8912 274.309 26.7227C274.325 26.751 274.343 26.7781 274.363 26.8038L275.512 27.9287C274.799 28.7263 274.209 29.6257 273.762 30.5974L272.279 30.0062C272.248 29.9923 272.215 29.9831 272.181 29.9791C272.18 29.5698 271.989 29.1841 271.662 28.9362C271.337 28.6886 270.914 28.6068 270.519 28.7152C270.124 28.8238 269.803 29.1101 269.649 29.4897C269.496 29.8693 269.528 30.2986 269.736 30.6512C269.944 31.0037 270.305 31.2388 270.712 31.2871C271.118 31.3357 271.524 31.1917 271.81 30.8981C271.837 30.9165 271.867 30.9323 271.897 30.9452L273.38 31.54C273.038 32.5192 272.84 33.5436 272.793 34.5801H271.195C271.162 34.5765 271.129 34.5765 271.097 34.5801C270.942 34.2012 270.62 33.9158 270.225 33.8086C269.83 33.7012 269.407 33.7841 269.082 34.0327C268.757 34.2813 268.566 34.6673 268.566 35.0766C268.566 35.4858 268.757 35.8718 269.082 36.1204C269.407 36.3692 269.83 36.452 270.225 36.3447C270.62 36.2375 270.942 35.9522 271.097 35.5733C271.129 35.5768 271.162 35.5768 271.195 35.5733H272.8H272.799C272.85 36.5912 273.046 37.5967 273.38 38.5595L271.891 39.154C271.859 39.165 271.828 39.1799 271.8 39.1978C271.515 38.9032 271.11 38.7579 270.703 38.8047C270.297 38.8514 269.935 39.0852 269.725 39.4365C269.516 39.7881 269.482 40.2171 269.633 40.5974C269.785 40.9775 270.105 41.2652 270.5 41.3755C270.894 41.4858 271.317 41.4061 271.644 41.1599C271.971 40.9139 272.165 40.5293 272.168 40.1201C272.201 40.1163 272.232 40.1071 272.262 40.093L273.756 39.5018H273.755C274.206 40.4864 274.803 41.3974 275.525 42.2042L274.377 43.3291C274.357 43.3548 274.339 43.3819 274.323 43.4102C273.948 43.2419 273.516 43.2584 273.156 43.4552C272.795 43.6517 272.547 44.0056 272.485 44.4118C272.424 44.8178 272.556 45.2295 272.842 45.5242C273.128 45.819 273.535 45.9629 273.943 45.9132C274.351 45.8637 274.712 45.6262 274.919 45.2716C275.126 44.9167 275.156 44.4855 274.999 44.1059C275.029 44.0913 275.057 44.0732 275.083 44.052L276.228 42.9271C276.99 43.6373 277.852 44.2325 278.785 44.6939L278.144 46.1665C278.13 46.1969 278.12 46.2288 278.113 46.2613C277.705 46.253 277.316 46.4356 277.062 46.7549C276.807 47.0744 276.716 47.4941 276.815 47.8902C276.915 48.2863 277.193 48.6135 277.568 48.7752C277.943 48.9369 278.372 48.9145 278.728 48.7149C279.084 48.5151 279.327 48.1609 279.384 47.7566C279.442 47.3525 279.308 46.9443 279.022 46.6531C279.041 46.6274 279.058 46.6003 279.072 46.572L279.714 45.0993V45.0991C280.774 45.4992 281.89 45.7273 283.021 45.7746V47.3793C283.018 47.4118 283.018 47.4448 283.021 47.4773C282.642 47.6319 282.357 47.9545 282.25 48.3494C282.142 48.7443 282.225 49.1668 282.474 49.492C282.723 49.8171 283.109 50.008 283.518 50.008C283.927 50.008 284.313 49.8171 284.562 49.492C284.811 49.1668 284.893 48.7443 284.786 48.3494C284.679 47.9546 284.393 47.6319 284.015 47.4773C284.018 47.4448 284.018 47.4118 284.015 47.3793V45.7883C285.146 45.7407 286.262 45.5127 287.322 45.1128L287.97 46.5584C287.984 46.5883 288.001 46.6166 288.021 46.643C287.73 46.9324 287.591 47.3409 287.644 47.7476C287.698 48.1545 287.939 48.5127 288.296 48.7163C288.652 48.9197 289.083 48.9449 289.461 48.7844C289.839 48.6239 290.12 48.2962 290.221 47.8984C290.322 47.5007 290.231 47.0786 289.976 46.7572C289.72 46.4361 289.33 46.2525 288.919 46.2612C288.913 46.2287 288.903 46.1969 288.889 46.1665L288.244 44.6938C289.173 44.2357 290.031 43.645 290.791 42.9407L291.96 44.0654C291.986 44.0867 292.014 44.1048 292.044 44.1196C291.887 44.4992 291.916 44.9302 292.123 45.2851C292.33 45.6397 292.692 45.8772 293.099 45.9269C293.507 45.9764 293.915 45.8324 294.201 45.5377C294.487 45.2429 294.619 44.8315 294.557 44.4253C294.496 44.0191 294.248 43.6651 293.887 43.4686C293.526 43.2721 293.094 43.2554 292.72 43.4239C292.704 43.3956 292.686 43.3685 292.666 43.3428L291.517 42.2179C292.229 41.4215 292.817 40.523 293.264 39.5527L294.75 40.1403C294.781 40.1543 294.814 40.1634 294.848 40.1674C294.849 40.5767 295.041 40.9625 295.367 41.2103C295.693 41.458 296.115 41.5398 296.51 41.4314C296.905 41.3227 297.226 41.0365 297.38 40.6568C297.534 40.2772 297.501 39.8479 297.293 39.4954C297.085 39.1429 296.724 38.9077 296.317 38.8594C295.911 38.8109 295.505 38.9549 295.219 39.2485C295.192 39.2301 295.162 39.2143 295.132 39.2013L293.649 38.6101C293.991 37.6304 294.189 36.6063 294.236 35.5698L295.834 35.58ZM286.964 27.7599C287.553 27.7599 288.119 27.9939 288.535 28.4107C288.952 28.8276 289.186 29.3931 289.186 29.9826C289.186 30.572 288.952 31.1375 288.535 31.5543C288.119 31.9712 287.553 32.2054 286.964 32.2054C286.374 32.2054 285.809 31.9712 285.392 31.5543C284.975 31.1375 284.741 30.572 284.741 29.9826C284.74 29.3929 284.974 28.8269 285.391 28.4098C285.808 27.9927 286.374 27.759 286.964 27.76L286.964 27.7599ZM283.68 37.4614C283.091 37.4614 282.525 37.2272 282.108 36.8104C281.692 36.3935 281.457 35.828 281.457 35.2385C281.457 34.6492 281.692 34.0836 282.108 33.6668C282.525 33.25 283.091 33.0157 283.68 33.0157C284.27 33.0157 284.835 33.2499 285.252 33.6668C285.669 34.0836 285.903 34.6491 285.903 35.2385C285.903 35.828 285.669 36.3935 285.252 36.8104C284.835 37.2272 284.27 37.4614 283.68 37.4614ZM280.394 27.7599C280.983 27.7599 281.548 27.9939 281.965 28.4107C282.382 28.8276 282.616 29.3931 282.616 29.9826C282.616 30.572 282.382 31.1375 281.965 31.5543C281.548 31.9712 280.983 32.2054 280.394 32.2054C279.804 32.2054 279.239 31.9712 278.822 31.5543C278.405 31.1375 278.171 30.572 278.171 29.9826C278.171 29.3931 278.405 28.8276 278.822 28.4107C279.239 27.9939 279.804 27.7599 280.394 27.7599ZM274.887 35.2386C274.887 34.6483 275.122 34.0823 275.54 33.6655C275.958 33.2484 276.524 33.0147 277.115 33.0161C277.705 33.0173 278.27 33.2531 278.686 33.6718C279.103 34.0906 279.335 34.6575 279.333 35.2478C279.33 35.838 279.093 36.403 278.674 36.8185C278.254 37.2337 277.687 37.4651 277.097 37.4615C276.509 37.4587 275.947 37.2233 275.533 36.8067C275.119 36.3899 274.886 35.8262 274.887 35.2386ZM280.394 42.3867C279.804 42.3867 279.239 42.1527 278.822 41.7359C278.405 41.3191 278.171 40.7536 278.171 40.164C278.171 39.5747 278.405 39.0091 278.822 38.5923C279.239 38.1755 279.804 37.9412 280.394 37.9412C280.983 37.9412 281.548 38.1755 281.965 38.5923C282.382 39.0091 282.616 39.5746 282.616 40.164C282.616 40.7535 282.382 41.319 281.965 41.7359C281.548 42.1527 280.983 42.3867 280.394 42.3867ZM286.964 42.3867H286.964C286.374 42.3867 285.809 42.1527 285.392 41.7359C284.975 41.3191 284.741 40.7536 284.741 40.164C284.741 39.5747 284.975 39.0091 285.392 38.5923C285.809 38.1755 286.374 37.9412 286.964 37.9412C287.553 37.9412 288.118 38.1755 288.535 38.5923C288.952 39.0091 289.186 39.5746 289.186 40.164C289.186 40.7535 288.952 41.319 288.535 41.7359C288.118 42.1527 287.553 42.3867 286.964 42.3867H286.964ZM289.933 37.4617C289.343 37.4617 288.778 37.2275 288.361 36.8107C287.944 36.3939 287.71 35.8283 287.71 35.2388C287.71 34.6495 287.944 34.0839 288.361 33.6671C288.778 33.2503 289.343 33.016 289.933 33.016C290.522 33.016 291.088 33.2502 291.505 33.6671C291.922 34.0839 292.156 34.6494 292.156 35.2388C292.156 35.8283 291.922 36.3938 291.505 36.8107C291.088 37.2275 290.522 37.4617 289.933 37.4617Z" fill="#9D4C6C"/>
</svg>
