<svg width="20" height="20" viewBox="0 0 20 20" fill="none" xmlns="http://www.w3.org/2000/svg">
<path d="M3.99999 10C3.99999 10.3682 3.70151 10.6667 3.33332 10.6667C2.96513 10.6667 2.66666 10.3682 2.66666 10C2.66666 9.63185 2.96513 9.33337 3.33332 9.33337C3.70151 9.33337 3.99999 9.63185 3.99999 10Z" stroke="#1D1929" stroke-width="2"/>
<path d="M10.6667 10C10.6667 10.3682 10.3682 10.6667 9.99999 10.6667C9.6318 10.6667 9.33332 10.3682 9.33332 10C9.33332 9.63185 9.6318 9.33337 9.99999 9.33337C10.3682 9.33337 10.6667 9.63185 10.6667 10Z" stroke="#1D1929" stroke-width="2"/>
<path d="M17.3333 10C17.3333 10.3682 17.0348 10.6667 16.6667 10.6667C16.2985 10.6667 16 10.3682 16 10C16 9.63185 16.2985 9.33337 16.6667 9.33337C17.0348 9.33337 17.3333 9.63185 17.3333 10Z" stroke="#1D1929" stroke-width="2"/>
</svg>
