<svg width="32" height="32" viewBox="0 0 32 32" fill="none" xmlns="http://www.w3.org/2000/svg">
<path d="M9.87315 27.5836L9.87295 27.5836C8.36324 27.4233 7.57534 26.2599 7.1512 24.768C6.72747 23.2776 6.66075 21.4409 6.60466 19.8968L6.60449 19.8923L6.60316 19.8556C6.59489 19.6282 6.58687 19.4081 6.5779 19.1976M9.87315 27.5836L6.5779 19.1976M9.87315 27.5836C9.91503 27.5879 9.95637 27.59 9.99698 27.59C10.5798 27.5898 10.9754 27.2 11.283 26.6116C11.5901 26.0245 11.818 25.2243 12.0603 24.3732L12.0613 24.3697C12.2954 23.5477 12.5566 22.6309 12.9007 21.915C13.0727 21.5572 13.2639 21.2527 13.4802 21.0361C13.6956 20.8205 13.9335 20.6942 14.2012 20.6853C14.4641 20.6941 14.6985 20.8202 14.9114 21.0358C15.1251 21.2524 15.3146 21.5569 15.4854 21.9147C15.8271 22.6307 16.0883 23.5476 16.3224 24.3696L16.3239 24.3748C16.5661 25.2254 16.7939 26.025 17.1007 26.6118C17.4083 27.2002 17.8039 27.59 18.3869 27.59H18.387H18.3873C18.4277 27.59 18.4691 27.5879 18.511 27.5836L18.5112 27.5836M9.87315 27.5836L18.5112 27.5836M6.5779 19.1976C6.5346 18.1885 6.18043 17.3756 5.80077 16.5057M6.5779 19.1976C6.5779 19.1976 6.5779 19.1976 6.5779 19.1976L5.80077 16.5057M5.80077 16.5057C5.80077 16.5057 5.80077 16.5057 5.80077 16.5057L5.79937 16.5024C5.38378 15.5506 4.94997 14.557 4.94997 13.2887C4.94997 10.4164 7.28682 8.07936 10.1593 8.07936C11.1624 8.07936 11.8701 8.41295 12.4873 8.70388L12.4901 8.70521L12.4901 8.70521C13.0526 8.97046 13.5288 9.19456 14.1921 9.1947L5.80077 16.5057ZM18.5112 27.5836C20.0208 27.4233 20.8088 26.2599 21.2329 24.768C21.6569 23.2768 21.7235 21.4392 21.7795 19.8947L21.7796 19.8923L21.7808 19.8609C21.7891 19.6315 21.7972 19.4097 21.8062 19.1976C21.8495 18.1887 22.2038 17.3762 22.5832 16.506L22.5833 16.5057L22.5833 16.5056L22.584 16.5041C22.9998 15.5521 23.4341 14.5578 23.4341 13.2887C23.4341 10.4162 21.0974 8.07936 18.2248 8.07936C17.221 8.07936 16.5124 8.41356 15.8951 8.70468L15.894 8.7052L15.894 8.70522M18.5112 27.5836L15.894 8.70522M15.894 8.70522L15.8937 8.70537C15.331 8.97036 14.855 9.19452 14.1922 9.1947L15.894 8.70522ZM14.1926 19.5613L14.1478 19.5605L14.1475 19.5623C13.1891 19.5934 12.5433 20.2109 12.0661 21.068C11.5899 21.9231 11.2751 23.0282 10.9819 24.0575L10.9804 24.0626L10.9804 24.0626C10.859 24.4893 10.6858 25.0971 10.4999 25.5982C10.4069 25.849 10.3115 26.0707 10.2188 26.2289C10.1723 26.3082 10.1279 26.3692 10.0863 26.4098C10.0453 26.4501 10.0129 26.4646 9.98904 26.4654C9.48867 26.4115 9.10398 26.1473 8.80515 25.7347C8.50474 25.3199 8.29219 24.7562 8.14015 24.1101C7.83602 22.8176 7.77754 21.2124 7.72812 19.8517C7.71937 19.609 7.71079 19.3742 7.70114 19.1497C7.64913 17.9302 7.23212 16.9748 6.83253 16.0594L6.83127 16.0565L6.83127 16.0565C6.43924 15.159 6.0744 14.3214 6.0744 13.289C6.0744 11.0364 7.90701 9.20381 10.1596 9.20381C10.9101 9.20381 11.4403 9.45307 12.0109 9.72223L12.0124 9.72295C12.6289 10.0139 13.2754 10.319 14.1924 10.3191H14.1925C15.1095 10.3188 15.7564 10.0136 16.3733 9.72256L16.3739 9.72224C16.9445 9.45326 17.4744 9.20381 18.2249 9.20381C20.4775 9.20381 22.3103 11.0364 22.3103 13.289C22.3103 14.3212 21.9453 15.1591 21.5534 16.0565L21.5992 16.0765L21.5534 16.0565L21.5518 16.0603C21.1525 16.9755 20.7357 17.9306 20.6836 19.1497C20.6741 19.3651 20.666 19.5904 20.6576 19.8228L20.6566 19.8517C20.6566 19.8517 20.6566 19.8517 20.6566 19.8517C20.6072 21.2124 20.5487 22.8176 20.2446 24.1101C20.0925 24.7562 19.88 25.3199 19.5796 25.7347C19.2803 26.1479 18.8951 26.4122 18.3937 26.4656L18.3855 26.4661C18.3633 26.4656 18.332 26.4517 18.2912 26.4109C18.2506 26.3702 18.2069 26.3091 18.1611 26.2298C18.0697 26.0714 17.9752 25.8494 17.8828 25.5985C17.6983 25.0977 17.5253 24.4905 17.4037 24.0636L17.4032 24.0619L17.4016 24.0563C17.1085 23.0273 16.7938 21.9225 16.3177 21.0675C15.8402 20.21 15.1937 19.5924 14.234 19.562L14.2333 19.562L14.1926 19.5613Z" fill="white" stroke="white" stroke-width="0.1"/>
<path d="M7.65917 14.7652C7.39917 14.8767 7.27846 15.1773 7.38989 15.4375C7.43221 15.5362 7.4765 15.6384 7.52328 15.7452M7.65917 14.7652L9.03117 16.579C9.14053 16.8695 8.99313 17.1939 8.70261 17.3027L8.70244 17.3028C8.63764 17.3268 8.57087 17.3386 8.5049 17.3386H8.4889L8.48852 17.3383C8.26718 17.3318 8.06144 17.194 7.97879 16.9738C7.81449 16.537 7.63572 16.1274 7.47746 15.7652L7.52328 15.7452M7.65917 14.7652C7.91935 14.6543 8.22008 14.7744 8.33149 15.0344L7.65917 14.7652ZM7.52328 15.7452C7.68149 16.1073 7.86077 16.518 8.02559 16.9562L9.03115 16.579C8.85651 16.114 8.6712 15.6892 8.50766 15.3149L8.37745 15.0147C8.37743 15.0147 8.37742 15.0147 8.37741 15.0146C8.25508 14.7293 7.92501 14.5975 7.63957 14.7192L7.63957 14.7192L7.63945 14.7192C7.35417 14.8416 7.2216 15.1715 7.34393 15.4572L7.34393 15.4572C7.38631 15.5561 7.43065 15.6583 7.47749 15.7652L7.52328 15.7452ZM8.98436 16.5966C9.084 16.8612 8.94972 17.1568 8.68507 17.2559L8.98436 16.5966Z" fill="white" stroke="white" stroke-width="0.1"/>
<path d="M7.35413 13.9515H7.31265C7.01502 13.9515 6.76691 13.7177 6.75181 13.4174L6.7518 13.4172C6.74927 13.3628 6.74782 13.3076 6.74782 13.2515C6.74782 11.5735 8.11288 10.2083 9.79105 10.2083C10.1014 10.2083 10.353 10.4602 10.353 10.7703C10.353 11.0806 10.1011 11.3322 9.79105 11.3322C8.73295 11.3322 7.87196 12.1932 7.87196 13.2513L7.35413 13.9515ZM7.35413 13.9515L7.35445 13.9499M7.35413 13.9515L7.35445 13.9499M7.35445 13.9499C7.65776 13.9276 7.88963 13.6673 7.8744 13.3615C7.8744 13.3615 7.8744 13.3616 7.8744 13.3616L7.35445 13.9499ZM7.31265 13.9015C7.04158 13.9015 6.81551 13.6885 6.80175 13.4149L7.31265 13.9015Z" fill="white" stroke="white" stroke-width="0.1"/>
<path d="M20.7781 7.20461C20.7781 7.5147 21.0298 7.76656 21.3401 7.76656C21.6503 7.76656 21.902 7.51509 21.902 7.20461V5.01192C21.902 4.70183 21.6504 4.44997 21.3401 4.44997C21.03 4.44997 20.7781 4.70162 20.7781 5.01192V7.20461Z" fill="white" stroke="white" stroke-width="0.1"/>
<path d="M24.2236 10.7493H26.5588L27.0708 10.1873H27.1208C27.1208 10.1873 27.1208 10.1873 27.1208 10.1873C27.1207 9.87723 26.8691 9.62538 26.5588 9.62538H24.2236C23.9135 9.62538 23.6617 9.87703 23.6617 10.1873C23.6617 10.4974 23.9133 10.7493 24.2236 10.7493Z" fill="white" stroke="white" stroke-width="0.1"/>
<path d="M23.5932 8.66743L23.6285 8.70278L23.6639 8.66744L25.4694 6.86245L25.4694 6.86243C25.6888 6.64291 25.6888 6.28699 25.4696 6.06747L25.4696 6.06742C25.25 5.84808 24.8941 5.8483 24.6746 6.06721L24.6746 6.06726L22.8692 7.87279L22.8339 7.90815L22.8692 7.9435L23.5932 8.66743Z" fill="white" stroke="white" stroke-width="0.1"/>
</svg>
