<svg width="32" height="33" viewBox="0 0 32 33" fill="none" xmlns="http://www.w3.org/2000/svg">
<path d="M16.3938 5C16.3938 5 9 15.3865 9 19.518C9 23.6495 12.3501 27 16.482 27C20.6139 27.0002 23.964 23.6501 23.964 19.518C23.964 15.3859 16.3933 5 16.3933 5H16.3938ZM13.7941 24.9014C13.7068 25.0181 13.5726 25.0801 13.437 25.0801C13.3439 25.0801 13.2499 25.0513 13.1701 24.9911C11.2866 23.5805 10.4681 20.9861 10.4343 20.8765C10.3617 20.6413 10.4934 20.3918 10.7284 20.319C10.965 20.2452 11.2132 20.3779 11.2864 20.6127C11.2939 20.6371 12.0567 23.0426 13.705 24.2773C13.9018 24.4248 13.942 24.7041 13.7941 24.9013L13.7941 24.9014ZM15.4895 25.8732C15.4791 25.8732 15.4689 25.873 15.4586 25.8723C15.1149 25.8485 14.775 25.7813 14.4484 25.672C14.2151 25.5938 14.089 25.341 14.1672 25.1077C14.246 24.874 14.4986 24.7489 14.7317 24.8265C14.9866 24.9117 15.2516 24.9644 15.5196 24.9829C15.7651 24.9999 15.9507 25.2126 15.9339 25.4582C15.9179 25.6932 15.7216 25.8732 15.4895 25.8732L15.4895 25.8732Z" fill="#9D4C6C"/>
</svg>
