<svg width="186" height="59" viewBox="0 0 186 59" fill="none" xmlns="http://www.w3.org/2000/svg">
<circle cx="20" cy="30" r="20" fill="white"/>
<g clip-path="url(#clip0_2_952)">
<path d="M12.6667 22.6666L27.3334 37.3333" stroke="#7A84B2" stroke-width="1.4" stroke-linecap="round" stroke-linejoin="round"/>
<path d="M22 28.2267V24.6667C22.0005 24.1707 21.8167 23.6922 21.4842 23.3242C21.1518 22.9561 20.6945 22.7246 20.201 22.6748C19.7075 22.625 19.2131 22.7602 18.8138 23.0544C18.4145 23.3486 18.1387 23.7806 18.04 24.2667M18 28V30C18.0003 30.3953 18.1178 30.7817 18.3376 31.1102C18.5574 31.4388 18.8696 31.6949 19.2349 31.8461C19.6001 31.9974 20.002 32.037 20.3897 31.9599C20.7774 31.8829 21.1336 31.6927 21.4133 31.4134L18 28Z" stroke="#7A84B2" stroke-width="1.4" stroke-linecap="round" stroke-linejoin="round"/>
<path d="M24.6666 28.6666V30C24.6664 30.2749 24.6419 30.5493 24.5933 30.82M23.3333 33.3C22.6825 33.9642 21.8481 34.4189 20.9371 34.6057C20.026 34.7925 19.08 34.7028 18.2203 34.3481C17.3606 33.9935 16.6265 33.3901 16.1121 32.6154C15.5977 31.8407 15.3265 30.9299 15.3333 30V28.6666L23.3333 33.3Z" stroke="#7A84B2" stroke-width="1.4" stroke-linecap="round" stroke-linejoin="round"/>
<path d="M20 34.6666V37.3333" stroke="#7A84B2" stroke-width="1.4" stroke-linecap="round" stroke-linejoin="round"/>
<path d="M17.3333 37.3334H22.6666" stroke="#7A84B2" stroke-width="1.4" stroke-linecap="round" stroke-linejoin="round"/>
</g>
<circle cx="92.5" cy="29.5" r="29.5" fill="#F73859"/>
<g clip-path="url(#clip1_2_952)">
<path d="M82.4209 33.1113L80.3369 30.9532C80.1426 30.7537 79.9922 30.5158 79.8952 30.2547C79.7982 29.9936 79.7567 29.7152 79.7736 29.4372C79.7904 29.1592 79.8651 28.8878 79.9929 28.6403C80.1207 28.3929 80.2988 28.1749 80.5157 28.0002C82.9615 26.1032 85.8182 24.8062 88.8562 24.2137C91.6608 23.6397 94.5574 23.6903 97.3402 24.3618C100.368 25.0644 103.188 26.4704 105.571 28.4659C105.781 28.6474 105.951 28.8707 106.07 29.1216C106.189 29.3724 106.255 29.6453 106.263 29.9229C106.27 30.2004 106.22 30.4765 106.116 30.7337C106.011 30.9908 105.854 31.2233 105.654 31.4164L103.496 33.5004C103.15 33.8409 102.693 34.0441 102.208 34.0721C101.723 34.1001 101.245 33.9509 100.863 33.6524C100.105 33.0498 99.2809 32.5348 98.4071 32.1173C98.0617 31.9533 97.7705 31.6937 97.5681 31.3693C97.3657 31.0449 97.2606 30.6693 97.2651 30.2869L97.2964 28.4911C94.5333 27.6791 91.6022 27.628 88.8125 28.3431L88.7811 30.1388C88.7723 30.5211 88.6541 30.8928 88.4405 31.21C88.2269 31.5271 87.9268 31.7764 87.5759 31.9283C86.6881 32.315 85.8469 32.8009 85.0683 33.3767C84.6713 33.6649 84.1822 33.797 83.694 33.7481C83.2059 33.6991 82.7528 33.4725 82.4209 33.1113Z" stroke="white" stroke-width="1.4" stroke-linecap="round" stroke-linejoin="round"/>
</g>
<circle cx="166" cy="30" r="20" fill="white"/>
<path d="M167.976 24.9V24.9028C168.477 24.9275 168.952 25.137 169.308 25.4927C169.689 25.872 169.903 26.3868 169.904 26.9238L169.904 26.924V27.532L173.394 25.7593C173.394 25.7593 173.394 25.7593 173.394 25.7593L173.394 25.7592L173.439 25.8484C173.559 25.7873 173.701 25.7929 173.816 25.8629L167.976 24.9ZM167.976 24.9H167.876H159.927C159.39 24.9 158.874 25.1137 158.494 25.4938L158.494 25.4938C158.114 25.8741 157.9 26.3898 157.9 26.9275V33.1419C157.9 33.6796 158.114 34.1952 158.494 34.5755C158.874 34.9557 159.39 35.1693 159.927 35.1693H167.876C168.414 35.1693 168.93 34.9557 169.31 34.5755C169.69 34.1952 169.904 33.6796 169.904 33.1419V32.5339L173.394 34.3066L173.539 34.3804V34.3537C173.651 34.3713 173.768 34.3493 173.868 34.2883L173.868 34.2882C174.012 34.2 174.1 34.0432 174.1 33.8743V33.8742V26.1915V26.1914C174.1 26.0225 174.012 25.8657 173.868 25.7776L167.976 24.9ZM168.933 33.1417V33.1415V26.9273C168.933 26.6471 168.822 26.3784 168.623 26.1802C168.425 25.9821 168.157 25.8709 167.876 25.8709H159.927C159.647 25.8709 159.378 25.9821 159.18 26.1802L168.933 33.1417ZM168.933 33.1417C168.933 33.4218 168.822 33.6905 168.623 33.8887M168.933 33.1417L168.623 33.8887M168.623 33.8887C168.623 33.8887 168.623 33.8887 168.623 33.8887M168.623 33.8887L168.623 33.8887M168.623 33.8887C168.425 34.0868 168.157 34.1981 167.876 34.1981H159.927C159.647 34.1981 159.378 34.0868 159.18 33.8887C158.982 33.6906 158.871 33.4218 158.871 33.1417V26.9273C158.871 26.6471 158.982 26.3784 159.18 26.1802L168.623 33.8887ZM169.904 28.6211L173.127 26.9824V33.0865L169.904 31.4532V28.6211Z" fill="black" stroke="black" stroke-width="0.2"/>
<defs>
<clipPath id="clip0_2_952">
<rect width="16" height="16" fill="white" transform="translate(12 22)"/>
</clipPath>
<clipPath id="clip1_2_952">
<rect width="24" height="24" fill="white" transform="translate(110 30) rotate(136)"/>
</clipPath>
</defs>
</svg>
