<svg width="25" height="25" viewBox="0 0 25 25" fill="none" xmlns="http://www.w3.org/2000/svg">
<g clip-path="url(#clip0_2_1224)">
<path d="M12.0173 4.26829H8.35874V2.43902H8.9685C9.63923 2.43902 10.188 1.89024 10.188 1.21951C10.188 0.54878 9.63923 0 8.9685 0H5.30996C4.63923 0 4.09045 0.54878 4.09045 1.21951C4.09045 1.89024 4.63923 2.43902 5.30996 2.43902H5.91972V4.26829H2.26119C1.59046 4.26829 1.04168 4.81707 1.04168 5.4878C1.04168 6.15853 1.59046 6.70731 2.26119 6.70731V15.8536C2.26119 17.1951 3.35875 18.2927 4.70021 18.2927H5.91972V23.1707L8.35874 25V18.2927H9.57825C10.9197 18.2927 12.0173 17.1951 12.0173 15.8536V6.70731C12.688 6.70731 13.2368 6.15853 13.2368 5.4878C13.2368 4.81707 12.688 4.26829 12.0173 4.26829ZM9.57825 8.53658H7.44411C6.94411 8.53658 6.52948 8.95121 6.52948 9.45121C6.52948 9.95121 6.94411 10.3658 7.44411 10.3658H9.57825V12.1951H7.44411C6.94411 12.1951 6.52948 12.6097 6.52948 13.1097C6.52948 13.6097 6.94411 14.0244 7.44411 14.0244H9.57825V15.8536H4.70021V6.70731H9.57825V8.53658ZM22.3831 10.3658V9.75609C23.0538 9.75609 23.6026 9.20731 23.6026 8.53658C23.6026 7.86585 23.0538 7.31706 22.3831 7.31706H16.2856C15.6148 7.31706 15.0661 7.86585 15.0661 8.53658C15.0661 9.20731 15.6148 9.75609 16.2856 9.75609V10.3658C16.2856 10.9756 14.4563 11.7805 14.4563 14.0244V21.9512C14.4563 23.2927 15.5539 24.3902 16.8953 24.3902H21.7734C23.1148 24.3902 24.2124 23.2927 24.2124 21.9512V14.0244C24.2124 11.7805 22.3831 10.9756 22.3831 10.3658ZM18.7246 10.3658V9.75609H19.9441V10.3658C19.9441 12.3171 21.7734 12.8049 21.7734 14.0244V14.6341H16.8953C16.8953 14.378 16.8953 14.1585 16.8953 14.0244C16.8953 12.8049 18.7246 12.3171 18.7246 10.3658ZM16.8953 21.9512C16.8953 21.9512 16.8953 21.1829 16.8953 20.1219H21.7734V21.9512H16.8953Z" fill="#009DC7"/>
</g>
<defs>
<clipPath id="clip0_2_1224">
<rect width="24.8889" height="24.8889" fill="white" transform="scale(1.00446)"/>
</clipPath>
</defs>
</svg>
