<svg width="32" height="32" viewBox="0 0 32 32" fill="none" xmlns="http://www.w3.org/2000/svg">
<path d="M19.0508 16.9327V16.9827H19.1008H27.7294H27.7296H27.7796L27.7796 16.9327L27.7794 8.31422C27.7794 5.90787 25.8215 3.94994 23.4151 3.94994C21.0088 3.94994 19.0508 5.90787 19.0508 8.31422V16.9327ZM26.8181 16.0217H20.0116L20.0115 8.31395C20.0115 6.43693 21.5383 4.91056 23.4149 4.91056C25.2918 4.91056 26.8181 6.4371 26.8181 8.31395V16.0217Z" fill="#0E1012" stroke="#0E1012" stroke-width="0.1"/>
<path d="M16.254 25.5886L16.301 25.6057L16.3181 25.5588L19.2691 17.4503L19.2862 17.4033L19.2392 17.3862L11.1391 14.4396L11.1391 14.4396C10.6578 14.2646 10.156 14.1751 9.64721 14.1751C7.81831 14.1751 6.17078 15.3301 5.54646 17.0495C4.72401 19.3103 5.89451 21.8197 8.15528 22.6422L16.254 25.5886ZM9.64712 15.1368H9.67796C10.0633 15.1403 10.444 15.2097 10.8104 15.3429L18.0543 17.9778L15.7269 24.3744L8.48387 21.7395C7.62954 21.4286 6.94775 20.8042 6.5639 19.9803L6.56388 19.9803C6.17931 19.1564 6.13867 18.2329 6.44932 17.3782L6.44932 17.3782C6.9364 16.0375 8.22208 15.1368 9.64712 15.1368ZM6.40232 17.3611C6.08715 18.2282 6.1284 19.1656 6.51858 20.0014L6.40232 17.3611Z" fill="#0E1012" stroke="#0E1012" stroke-width="0.1"/>
<path d="M20.7209 19.4628C20.7209 20.143 21.2747 20.6966 21.9548 20.6966C22.6348 20.6966 23.1886 20.1431 23.1886 19.4628C23.1886 18.7827 22.6349 18.229 21.9548 18.229C21.2747 18.229 20.7209 18.7827 20.7209 19.4628ZM21.6819 19.463C21.6819 19.3123 21.8042 19.1902 21.9548 19.1902C22.1054 19.1902 22.2277 19.3121 22.2277 19.463C22.2277 19.6138 22.1056 19.7359 21.9548 19.7359C21.804 19.7359 21.6819 19.6138 21.6819 19.463Z" fill="#0E1012" stroke="#0E1012" stroke-width="0.1"/>
<path d="M26.7475 21.221V21.2211C26.7475 21.5094 26.5125 21.7445 26.2241 21.7445C25.9347 21.7445 25.6998 21.5093 25.6998 21.2211C25.6998 20.9317 25.9348 20.6966 26.2241 20.6966C26.5128 20.6966 26.7478 20.9318 26.7475 21.221ZM24.7389 21.2211C24.7389 22.04 25.4054 22.7057 26.2241 22.7057C27.0432 22.7057 27.7087 22.0398 27.7087 21.2211C27.7087 20.4024 27.043 19.7357 26.2241 19.7357C25.4056 19.7357 24.7389 20.4022 24.7389 21.2211Z" fill="#0E1012" stroke="#0E1012" stroke-width="0.1"/>
<path d="M21.9405 23.5066C21.9405 24.0452 22.379 24.4831 22.918 24.4831C23.4564 24.4831 23.8951 24.0452 23.8951 23.5066C23.8951 22.9669 23.4565 22.5281 22.918 22.5281C22.3789 22.5281 21.9405 22.9671 21.9405 23.5066Z" fill="#0E1012" stroke="#0E1012" stroke-width="0.1"/>
<path d="M18.639 22.8658C18.639 23.4838 19.1416 23.9861 19.7596 23.9861C20.3776 23.9861 20.8812 23.4838 20.8812 22.8658C20.8812 22.2478 20.3777 21.7444 19.7596 21.7444C19.1415 21.7444 18.639 22.2479 18.639 22.8658ZM19.6005 22.8658C19.6005 22.777 19.6723 22.7056 19.7596 22.7056C19.8482 22.7056 19.9201 22.7773 19.9201 22.8658C19.9201 22.9058 19.9027 22.9345 19.875 22.9548C19.8458 22.9761 19.8043 22.9885 19.7602 22.9886C19.716 22.9887 19.6746 22.9765 19.6455 22.9553C19.618 22.9351 19.6005 22.9063 19.6005 22.8658Z" fill="#0E1012" stroke="#0E1012" stroke-width="0.1"/>
<path d="M22.4373 27.57C22.4373 28.4883 23.1838 29.2346 24.1019 29.2346C25.0201 29.2346 25.7662 28.4883 25.7662 27.57C25.7662 26.6519 25.0201 25.9057 24.1019 25.9057C23.1836 25.9057 22.4373 26.6519 22.4373 27.57ZM23.3987 27.57C23.3987 27.1822 23.7144 26.8668 24.1019 26.8668C24.4895 26.8668 24.8052 27.1824 24.8052 27.57C24.8052 27.9578 24.4895 28.2732 24.1019 28.2732C23.7142 28.2732 23.3987 27.9576 23.3987 27.57Z" fill="#0E1012" stroke="#0E1012" stroke-width="0.1"/>
</svg>
