<svg width="32" height="32" viewBox="0 0 32 32" fill="none" xmlns="http://www.w3.org/2000/svg">
<mask id="path-1-outside-1_2_951" maskUnits="userSpaceOnUse" x="5" y="3" width="22" height="26" fill="black">
<rect fill="white" x="5" y="3" width="22" height="26"/>
<path d="M22.5248 24.2062C22.2892 24.2062 22.0973 24.3982 22.0973 24.6337V26.6637C22.0973 27.2628 21.6083 27.7517 21.0092 27.7517L11.4655 27.7519C10.8664 27.7519 10.3774 27.263 10.3774 26.6639V24.5878C10.3774 24.3523 10.1855 24.1603 9.94992 24.1603C9.71438 24.1603 9.52242 24.3523 9.52242 24.5878V26.6639C9.52242 27.7365 10.3955 28.6094 11.4655 28.6094H21.0092C22.0819 28.6094 22.9548 27.7364 22.9548 26.6639V24.6337C22.9548 24.3982 22.7628 24.2062 22.5246 24.2062L22.5248 24.2062ZM9.95015 8.64643C10.1857 8.64643 10.3777 8.45446 10.3777 8.21892V5.94304C10.3777 5.34395 10.8666 4.85499 11.4657 4.85499H12.4205V5.05732C12.4205 5.53338 12.8045 5.91748 13.2807 5.91748H19.1915C19.6676 5.91748 20.0517 5.53355 20.0517 5.05732V4.85499H21.0065C21.6056 4.85499 22.0946 5.34391 22.0946 5.94304V8.265C22.0946 8.50054 22.2865 8.69251 22.5221 8.69251C22.7576 8.69251 22.9496 8.50054 22.9496 8.265V5.94304C22.9496 4.87035 22.0765 4 21.004 4H11.4653C10.3926 4 9.52226 4.87305 9.52226 5.94304V8.21627C9.52226 8.45449 9.71422 8.64645 9.94976 8.64645L9.95015 8.64643ZM6.4532 15.6302C6.70409 15.6302 6.90624 15.4279 6.90624 15.1772V11.0707C6.90624 10.5407 7.33624 10.1107 7.86624 10.1107H11.9725C12.2234 10.1107 12.4255 9.90841 12.4255 9.6577C12.4255 9.40681 12.2232 9.20466 11.9725 9.20466L7.86624 9.20448C6.83712 9.20448 6 10.0416 6 11.0707V15.177C6 15.4279 6.20482 15.6302 6.45322 15.6302L6.4532 15.6302ZM24.6086 9.2046H20.4998C20.249 9.2046 20.0468 9.40692 20.0468 9.65764C20.0468 9.90853 20.2491 10.1107 20.4998 10.1107H24.6061C25.1361 10.1107 25.5661 10.5407 25.5661 11.0707V15.1769C25.5661 15.4278 25.7684 15.63 26.0191 15.63C26.27 15.63 26.4721 15.4276 26.4721 15.1769V11.0709C26.4748 10.0417 25.6377 9.20462 24.6086 9.20462L24.6086 9.2046ZM26.0216 17.2969C25.7707 17.2969 25.5686 17.4993 25.5686 17.75V21.8562C25.5686 22.3862 25.1386 22.8162 24.6086 22.8162L20.4998 22.8164C20.2489 22.8164 20.0468 23.0187 20.0468 23.2694C20.0468 23.5203 20.2491 23.7225 20.4998 23.7225H24.6061C25.6352 23.7225 26.4723 22.8853 26.4723 21.8562L26.4721 17.7502C26.4748 17.5018 26.2725 17.297 26.0216 17.297L26.0216 17.2969ZM12.428 23.2723C12.428 23.0214 12.2257 22.8192 11.975 22.8192L7.86608 22.819C7.33607 22.819 6.90608 22.389 6.90608 21.859V17.8501C6.90608 17.5992 6.70376 17.3971 6.45305 17.3971C6.20215 17.3971 6.00001 17.5994 6.00001 17.8501V21.859C6.00001 22.8882 6.83713 23.7253 7.86625 23.7253H11.9725C12.2259 23.7253 12.428 23.5231 12.428 23.2722L12.428 23.2723ZM17.031 12.2359C16.5703 12.0336 16.0455 12.0439 15.5898 12.2589L13.4087 13.2982C12.8096 13.585 12.4205 14.1993 12.4205 14.8623V17.9293C12.4205 18.6359 12.8428 19.2655 13.4982 19.5345L15.6408 20.41C15.8508 20.4945 16.0735 20.538 16.2962 20.538C16.5342 20.538 16.7723 20.4895 16.9924 20.3921L19.2094 19.4219C19.8392 19.1455 20.2462 18.5234 20.2462 17.8348L20.2464 14.7753C20.2464 14.0868 19.8394 13.4621 19.2071 13.1855L17.031 12.2359ZM15.8612 19.5219L13.8413 18.6949C13.529 18.5668 13.3267 18.2674 13.3267 17.9295V14.8653C13.3267 14.8217 13.3319 14.7783 13.3369 14.7372L15.4129 15.5872C15.6844 15.6972 15.8583 15.9585 15.8583 16.2528L15.8585 19.5219L15.8612 19.5219ZM16.3399 15.1494C16.1812 14.9778 15.9841 14.8396 15.7589 14.7449L13.9949 14.0229L15.9815 13.0758C16.1992 12.9735 16.4499 12.9683 16.6701 13.0656L18.6644 13.9387L17.0029 14.6683C16.7417 14.7808 16.519 14.9472 16.3399 15.1494L16.3399 15.1494ZM19.3401 14.7756V17.8349C19.3401 18.1626 19.1455 18.4621 18.8435 18.5926L16.7648 19.504V16.4116C16.7648 16.0148 17.0003 15.6564 17.3612 15.4976L19.3248 14.6375C19.3351 14.6835 19.3401 14.7296 19.3401 14.7757L19.3401 14.7756Z"/>
</mask>
<path d="M22.5248 24.2062C22.2892 24.2062 22.0973 24.3982 22.0973 24.6337V26.6637C22.0973 27.2628 21.6083 27.7517 21.0092 27.7517L11.4655 27.7519C10.8664 27.7519 10.3774 27.263 10.3774 26.6639V24.5878C10.3774 24.3523 10.1855 24.1603 9.94992 24.1603C9.71438 24.1603 9.52242 24.3523 9.52242 24.5878V26.6639C9.52242 27.7365 10.3955 28.6094 11.4655 28.6094H21.0092C22.0819 28.6094 22.9548 27.7364 22.9548 26.6639V24.6337C22.9548 24.3982 22.7628 24.2062 22.5246 24.2062L22.5248 24.2062ZM9.95015 8.64643C10.1857 8.64643 10.3777 8.45446 10.3777 8.21892V5.94304C10.3777 5.34395 10.8666 4.85499 11.4657 4.85499H12.4205V5.05732C12.4205 5.53338 12.8045 5.91748 13.2807 5.91748H19.1915C19.6676 5.91748 20.0517 5.53355 20.0517 5.05732V4.85499H21.0065C21.6056 4.85499 22.0946 5.34391 22.0946 5.94304V8.265C22.0946 8.50054 22.2865 8.69251 22.5221 8.69251C22.7576 8.69251 22.9496 8.50054 22.9496 8.265V5.94304C22.9496 4.87035 22.0765 4 21.004 4H11.4653C10.3926 4 9.52226 4.87305 9.52226 5.94304V8.21627C9.52226 8.45449 9.71422 8.64645 9.94976 8.64645L9.95015 8.64643ZM6.4532 15.6302C6.70409 15.6302 6.90624 15.4279 6.90624 15.1772V11.0707C6.90624 10.5407 7.33624 10.1107 7.86624 10.1107H11.9725C12.2234 10.1107 12.4255 9.90841 12.4255 9.6577C12.4255 9.40681 12.2232 9.20466 11.9725 9.20466L7.86624 9.20448C6.83712 9.20448 6 10.0416 6 11.0707V15.177C6 15.4279 6.20482 15.6302 6.45322 15.6302L6.4532 15.6302ZM24.6086 9.2046H20.4998C20.249 9.2046 20.0468 9.40692 20.0468 9.65764C20.0468 9.90853 20.2491 10.1107 20.4998 10.1107H24.6061C25.1361 10.1107 25.5661 10.5407 25.5661 11.0707V15.1769C25.5661 15.4278 25.7684 15.63 26.0191 15.63C26.27 15.63 26.4721 15.4276 26.4721 15.1769V11.0709C26.4748 10.0417 25.6377 9.20462 24.6086 9.20462L24.6086 9.2046ZM26.0216 17.2969C25.7707 17.2969 25.5686 17.4993 25.5686 17.75V21.8562C25.5686 22.3862 25.1386 22.8162 24.6086 22.8162L20.4998 22.8164C20.2489 22.8164 20.0468 23.0187 20.0468 23.2694C20.0468 23.5203 20.2491 23.7225 20.4998 23.7225H24.6061C25.6352 23.7225 26.4723 22.8853 26.4723 21.8562L26.4721 17.7502C26.4748 17.5018 26.2725 17.297 26.0216 17.297L26.0216 17.2969ZM12.428 23.2723C12.428 23.0214 12.2257 22.8192 11.975 22.8192L7.86608 22.819C7.33607 22.819 6.90608 22.389 6.90608 21.859V17.8501C6.90608 17.5992 6.70376 17.3971 6.45305 17.3971C6.20215 17.3971 6.00001 17.5994 6.00001 17.8501V21.859C6.00001 22.8882 6.83713 23.7253 7.86625 23.7253H11.9725C12.2259 23.7253 12.428 23.5231 12.428 23.2722L12.428 23.2723ZM17.031 12.2359C16.5703 12.0336 16.0455 12.0439 15.5898 12.2589L13.4087 13.2982C12.8096 13.585 12.4205 14.1993 12.4205 14.8623V17.9293C12.4205 18.6359 12.8428 19.2655 13.4982 19.5345L15.6408 20.41C15.8508 20.4945 16.0735 20.538 16.2962 20.538C16.5342 20.538 16.7723 20.4895 16.9924 20.3921L19.2094 19.4219C19.8392 19.1455 20.2462 18.5234 20.2462 17.8348L20.2464 14.7753C20.2464 14.0868 19.8394 13.4621 19.2071 13.1855L17.031 12.2359ZM15.8612 19.5219L13.8413 18.6949C13.529 18.5668 13.3267 18.2674 13.3267 17.9295V14.8653C13.3267 14.8217 13.3319 14.7783 13.3369 14.7372L15.4129 15.5872C15.6844 15.6972 15.8583 15.9585 15.8583 16.2528L15.8585 19.5219L15.8612 19.5219ZM16.3399 15.1494C16.1812 14.9778 15.9841 14.8396 15.7589 14.7449L13.9949 14.0229L15.9815 13.0758C16.1992 12.9735 16.4499 12.9683 16.6701 13.0656L18.6644 13.9387L17.0029 14.6683C16.7417 14.7808 16.519 14.9472 16.3399 15.1494L16.3399 15.1494ZM19.3401 14.7756V17.8349C19.3401 18.1626 19.1455 18.4621 18.8435 18.5926L16.7648 19.504V16.4116C16.7648 16.0148 17.0003 15.6564 17.3612 15.4976L19.3248 14.6375C19.3351 14.6835 19.3401 14.7296 19.3401 14.7757L19.3401 14.7756Z" fill="white"/>
<path d="M22.5248 24.2062C22.2892 24.2062 22.0973 24.3982 22.0973 24.6337V26.6637C22.0973 27.2628 21.6083 27.7517 21.0092 27.7517L11.4655 27.7519C10.8664 27.7519 10.3774 27.263 10.3774 26.6639V24.5878C10.3774 24.3523 10.1855 24.1603 9.94992 24.1603C9.71438 24.1603 9.52242 24.3523 9.52242 24.5878V26.6639C9.52242 27.7365 10.3955 28.6094 11.4655 28.6094H21.0092C22.0819 28.6094 22.9548 27.7364 22.9548 26.6639V24.6337C22.9548 24.3982 22.7628 24.2062 22.5246 24.2062L22.5248 24.2062ZM9.95015 8.64643C10.1857 8.64643 10.3777 8.45446 10.3777 8.21892V5.94304C10.3777 5.34395 10.8666 4.85499 11.4657 4.85499H12.4205V5.05732C12.4205 5.53338 12.8045 5.91748 13.2807 5.91748H19.1915C19.6676 5.91748 20.0517 5.53355 20.0517 5.05732V4.85499H21.0065C21.6056 4.85499 22.0946 5.34391 22.0946 5.94304V8.265C22.0946 8.50054 22.2865 8.69251 22.5221 8.69251C22.7576 8.69251 22.9496 8.50054 22.9496 8.265V5.94304C22.9496 4.87035 22.0765 4 21.004 4H11.4653C10.3926 4 9.52226 4.87305 9.52226 5.94304V8.21627C9.52226 8.45449 9.71422 8.64645 9.94976 8.64645L9.95015 8.64643ZM6.4532 15.6302C6.70409 15.6302 6.90624 15.4279 6.90624 15.1772V11.0707C6.90624 10.5407 7.33624 10.1107 7.86624 10.1107H11.9725C12.2234 10.1107 12.4255 9.90841 12.4255 9.6577C12.4255 9.40681 12.2232 9.20466 11.9725 9.20466L7.86624 9.20448C6.83712 9.20448 6 10.0416 6 11.0707V15.177C6 15.4279 6.20482 15.6302 6.45322 15.6302L6.4532 15.6302ZM24.6086 9.2046H20.4998C20.249 9.2046 20.0468 9.40692 20.0468 9.65764C20.0468 9.90853 20.2491 10.1107 20.4998 10.1107H24.6061C25.1361 10.1107 25.5661 10.5407 25.5661 11.0707V15.1769C25.5661 15.4278 25.7684 15.63 26.0191 15.63C26.27 15.63 26.4721 15.4276 26.4721 15.1769V11.0709C26.4748 10.0417 25.6377 9.20462 24.6086 9.20462L24.6086 9.2046ZM26.0216 17.2969C25.7707 17.2969 25.5686 17.4993 25.5686 17.75V21.8562C25.5686 22.3862 25.1386 22.8162 24.6086 22.8162L20.4998 22.8164C20.2489 22.8164 20.0468 23.0187 20.0468 23.2694C20.0468 23.5203 20.2491 23.7225 20.4998 23.7225H24.6061C25.6352 23.7225 26.4723 22.8853 26.4723 21.8562L26.4721 17.7502C26.4748 17.5018 26.2725 17.297 26.0216 17.297L26.0216 17.2969ZM12.428 23.2723C12.428 23.0214 12.2257 22.8192 11.975 22.8192L7.86608 22.819C7.33607 22.819 6.90608 22.389 6.90608 21.859V17.8501C6.90608 17.5992 6.70376 17.3971 6.45305 17.3971C6.20215 17.3971 6.00001 17.5994 6.00001 17.8501V21.859C6.00001 22.8882 6.83713 23.7253 7.86625 23.7253H11.9725C12.2259 23.7253 12.428 23.5231 12.428 23.2722L12.428 23.2723ZM17.031 12.2359C16.5703 12.0336 16.0455 12.0439 15.5898 12.2589L13.4087 13.2982C12.8096 13.585 12.4205 14.1993 12.4205 14.8623V17.9293C12.4205 18.6359 12.8428 19.2655 13.4982 19.5345L15.6408 20.41C15.8508 20.4945 16.0735 20.538 16.2962 20.538C16.5342 20.538 16.7723 20.4895 16.9924 20.3921L19.2094 19.4219C19.8392 19.1455 20.2462 18.5234 20.2462 17.8348L20.2464 14.7753C20.2464 14.0868 19.8394 13.4621 19.2071 13.1855L17.031 12.2359ZM15.8612 19.5219L13.8413 18.6949C13.529 18.5668 13.3267 18.2674 13.3267 17.9295V14.8653C13.3267 14.8217 13.3319 14.7783 13.3369 14.7372L15.4129 15.5872C15.6844 15.6972 15.8583 15.9585 15.8583 16.2528L15.8585 19.5219L15.8612 19.5219ZM16.3399 15.1494C16.1812 14.9778 15.9841 14.8396 15.7589 14.7449L13.9949 14.0229L15.9815 13.0758C16.1992 12.9735 16.4499 12.9683 16.6701 13.0656L18.6644 13.9387L17.0029 14.6683C16.7417 14.7808 16.519 14.9472 16.3399 15.1494L16.3399 15.1494ZM19.3401 14.7756V17.8349C19.3401 18.1626 19.1455 18.4621 18.8435 18.5926L16.7648 19.504V16.4116C16.7648 16.0148 17.0003 15.6564 17.3612 15.4976L19.3248 14.6375C19.3351 14.6835 19.3401 14.7296 19.3401 14.7757L19.3401 14.7756Z" stroke="white" stroke-width="0.2" mask="url(#path-1-outside-1_2_951)"/>
</svg>
